<mxfile host="app.diagrams.net" modified="2023-08-24T10:40:19.515Z" agent="Mozilla/5.0 (Windows NT 10.0; Win64; x64) AppleWebKit/537.36 (KHTML, like Gecko) Chrome/115.0.0.0 Safari/537.36 Edg/115.0.1901.200" etag="hrmbHtBwPftgPnq6bX7l" version="21.6.5" type="github">
  <diagram id="C5RBs43oDa-KdzZeNtuy" name="Page-1">
    <mxGraphModel dx="820" dy="949" grid="1" gridSize="10" guides="1" tooltips="1" connect="1" arrows="1" fold="1" page="1" pageScale="1" pageWidth="827" pageHeight="1169" math="0" shadow="0">
      <root>
        <mxCell id="WIyWlLk6GJQsqaUBKTNV-0" />
        <mxCell id="WIyWlLk6GJQsqaUBKTNV-1" parent="WIyWlLk6GJQsqaUBKTNV-0" />
        <mxCell id="WIyWlLk6GJQsqaUBKTNV-2" value="" style="rounded=0;html=1;jettySize=auto;orthogonalLoop=1;fontSize=11;endArrow=classic;endFill=1;strokeWidth=1;shadow=0;labelBackgroundColor=none;edgeStyle=orthogonalEdgeStyle;" parent="WIyWlLk6GJQsqaUBKTNV-1" source="WIyWlLk6GJQsqaUBKTNV-3" target="WIyWlLk6GJQsqaUBKTNV-6" edge="1">
          <mxGeometry relative="1" as="geometry" />
        </mxCell>
        <mxCell id="WIyWlLk6GJQsqaUBKTNV-3" value="新增报警" style="rounded=1;whiteSpace=wrap;html=1;fontSize=12;glass=0;strokeWidth=1;shadow=0;" parent="WIyWlLk6GJQsqaUBKTNV-1" vertex="1">
          <mxGeometry x="160" y="80" width="120" height="40" as="geometry" />
        </mxCell>
        <mxCell id="WIyWlLk6GJQsqaUBKTNV-4" value="Yes" style="rounded=0;html=1;jettySize=auto;orthogonalLoop=1;fontSize=11;endArrow=classic;endFill=1;strokeWidth=1;shadow=0;labelBackgroundColor=none;edgeStyle=orthogonalEdgeStyle;entryX=0.5;entryY=0;entryDx=0;entryDy=0;" parent="WIyWlLk6GJQsqaUBKTNV-1" source="WIyWlLk6GJQsqaUBKTNV-6" target="29gexGZSZ9uPs4J3_abL-1" edge="1">
          <mxGeometry y="20" relative="1" as="geometry">
            <mxPoint as="offset" />
          </mxGeometry>
        </mxCell>
        <mxCell id="WIyWlLk6GJQsqaUBKTNV-5" value="No" style="edgeStyle=orthogonalEdgeStyle;rounded=0;html=1;jettySize=auto;orthogonalLoop=1;fontSize=11;endArrow=classic;endFill=1;strokeWidth=1;shadow=0;labelBackgroundColor=none;" parent="WIyWlLk6GJQsqaUBKTNV-1" source="WIyWlLk6GJQsqaUBKTNV-6" target="WIyWlLk6GJQsqaUBKTNV-7" edge="1">
          <mxGeometry y="10" relative="1" as="geometry">
            <mxPoint as="offset" />
          </mxGeometry>
        </mxCell>
        <mxCell id="WIyWlLk6GJQsqaUBKTNV-6" value="查询同测点、测量类型并且状态为未生效或已生效的报警" style="rhombus;whiteSpace=wrap;html=1;shadow=0;fontFamily=Helvetica;fontSize=12;align=center;strokeWidth=1;spacing=6;spacingTop=-4;" parent="WIyWlLk6GJQsqaUBKTNV-1" vertex="1">
          <mxGeometry x="170" y="170" width="100" height="80" as="geometry" />
        </mxCell>
        <mxCell id="WIyWlLk6GJQsqaUBKTNV-7" value="新建当前测点、测量类型的报警事件详情" style="rounded=1;whiteSpace=wrap;html=1;fontSize=12;glass=0;strokeWidth=1;shadow=0;" parent="WIyWlLk6GJQsqaUBKTNV-1" vertex="1">
          <mxGeometry x="320" y="190" width="120" height="40" as="geometry" />
        </mxCell>
        <mxCell id="29gexGZSZ9uPs4J3_abL-1" value="遍历已存在的同测点-测量类型，未生效或已生效的报警详情" style="rounded=1;whiteSpace=wrap;html=1;" vertex="1" parent="WIyWlLk6GJQsqaUBKTNV-1">
          <mxGeometry x="160" y="280" width="120" height="60" as="geometry" />
        </mxCell>
        <mxCell id="29gexGZSZ9uPs4J3_abL-17" value="Vertical Container" style="swimlane;whiteSpace=wrap;html=1;" vertex="1" parent="WIyWlLk6GJQsqaUBKTNV-1">
          <mxGeometry x="130" y="350" width="470" height="690" as="geometry" />
        </mxCell>
        <mxCell id="WIyWlLk6GJQsqaUBKTNV-10" value="老详情的等级大于新详情的等级" style="rhombus;whiteSpace=wrap;html=1;shadow=0;fontFamily=Helvetica;fontSize=12;align=center;strokeWidth=1;spacing=6;spacingTop=-4;" parent="29gexGZSZ9uPs4J3_abL-17" vertex="1">
          <mxGeometry x="40" y="97.5" width="100" height="80" as="geometry" />
        </mxCell>
        <mxCell id="29gexGZSZ9uPs4J3_abL-6" value="老详情是生效状态" style="rhombus;whiteSpace=wrap;html=1;" vertex="1" parent="29gexGZSZ9uPs4J3_abL-17">
          <mxGeometry x="190" y="97.5" width="80" height="80" as="geometry" />
        </mxCell>
        <mxCell id="WIyWlLk6GJQsqaUBKTNV-9" value="Yes" style="edgeStyle=orthogonalEdgeStyle;rounded=0;html=1;jettySize=auto;orthogonalLoop=1;fontSize=11;endArrow=classic;endFill=1;strokeWidth=1;shadow=0;labelBackgroundColor=none;entryX=0;entryY=0.5;entryDx=0;entryDy=0;" parent="29gexGZSZ9uPs4J3_abL-17" source="WIyWlLk6GJQsqaUBKTNV-10" target="29gexGZSZ9uPs4J3_abL-6" edge="1">
          <mxGeometry y="10" relative="1" as="geometry">
            <mxPoint as="offset" />
            <mxPoint x="190" y="137.5" as="targetPoint" />
          </mxGeometry>
        </mxCell>
        <mxCell id="29gexGZSZ9uPs4J3_abL-7" value="设置为关闭状态" style="rounded=1;whiteSpace=wrap;html=1;" vertex="1" parent="29gexGZSZ9uPs4J3_abL-17">
          <mxGeometry x="330" y="123.75" width="100" height="27.5" as="geometry" />
        </mxCell>
        <mxCell id="29gexGZSZ9uPs4J3_abL-8" value="" style="edgeStyle=orthogonalEdgeStyle;rounded=0;orthogonalLoop=1;jettySize=auto;html=1;" edge="1" parent="29gexGZSZ9uPs4J3_abL-17" source="29gexGZSZ9uPs4J3_abL-6" target="29gexGZSZ9uPs4J3_abL-7">
          <mxGeometry relative="1" as="geometry" />
        </mxCell>
        <mxCell id="29gexGZSZ9uPs4J3_abL-9" value="Yes" style="edgeLabel;html=1;align=center;verticalAlign=middle;resizable=0;points=[];" vertex="1" connectable="0" parent="29gexGZSZ9uPs4J3_abL-8">
          <mxGeometry x="-0.2603" y="3" relative="1" as="geometry">
            <mxPoint as="offset" />
          </mxGeometry>
        </mxCell>
        <mxCell id="29gexGZSZ9uPs4J3_abL-10" value="设置为失效、已过期" style="rounded=1;whiteSpace=wrap;html=1;" vertex="1" parent="29gexGZSZ9uPs4J3_abL-17">
          <mxGeometry x="190" y="217.5" width="80" height="40" as="geometry" />
        </mxCell>
        <mxCell id="29gexGZSZ9uPs4J3_abL-11" value="" style="edgeStyle=orthogonalEdgeStyle;rounded=0;orthogonalLoop=1;jettySize=auto;html=1;" edge="1" parent="29gexGZSZ9uPs4J3_abL-17" source="29gexGZSZ9uPs4J3_abL-6" target="29gexGZSZ9uPs4J3_abL-10">
          <mxGeometry relative="1" as="geometry" />
        </mxCell>
        <mxCell id="29gexGZSZ9uPs4J3_abL-12" value="No" style="edgeLabel;html=1;align=center;verticalAlign=middle;resizable=0;points=[];" vertex="1" connectable="0" parent="29gexGZSZ9uPs4J3_abL-11">
          <mxGeometry x="-0.459" y="1" relative="1" as="geometry">
            <mxPoint as="offset" />
          </mxGeometry>
        </mxCell>
        <mxCell id="29gexGZSZ9uPs4J3_abL-31" value="" style="edgeStyle=orthogonalEdgeStyle;rounded=0;orthogonalLoop=1;jettySize=auto;html=1;" edge="1" parent="29gexGZSZ9uPs4J3_abL-17" source="29gexGZSZ9uPs4J3_abL-13" target="29gexGZSZ9uPs4J3_abL-30">
          <mxGeometry relative="1" as="geometry" />
        </mxCell>
        <mxCell id="29gexGZSZ9uPs4J3_abL-32" value="No" style="edgeLabel;html=1;align=center;verticalAlign=middle;resizable=0;points=[];" vertex="1" connectable="0" parent="29gexGZSZ9uPs4J3_abL-31">
          <mxGeometry x="-0.6908" y="2" relative="1" as="geometry">
            <mxPoint x="-2" y="33" as="offset" />
          </mxGeometry>
        </mxCell>
        <mxCell id="29gexGZSZ9uPs4J3_abL-13" value="是否超时" style="rhombus;whiteSpace=wrap;html=1;" vertex="1" parent="29gexGZSZ9uPs4J3_abL-17">
          <mxGeometry x="50" y="272.5" width="80" height="80" as="geometry" />
        </mxCell>
        <mxCell id="WIyWlLk6GJQsqaUBKTNV-8" value="No" style="rounded=0;html=1;jettySize=auto;orthogonalLoop=1;fontSize=11;endArrow=classic;endFill=1;strokeWidth=1;shadow=0;labelBackgroundColor=none;edgeStyle=orthogonalEdgeStyle;" parent="29gexGZSZ9uPs4J3_abL-17" source="WIyWlLk6GJQsqaUBKTNV-10" target="29gexGZSZ9uPs4J3_abL-13" edge="1">
          <mxGeometry x="0.3333" y="20" relative="1" as="geometry">
            <mxPoint as="offset" />
            <mxPoint x="90" y="227.5" as="targetPoint" />
          </mxGeometry>
        </mxCell>
        <mxCell id="29gexGZSZ9uPs4J3_abL-15" value="" style="edgeStyle=orthogonalEdgeStyle;rounded=0;orthogonalLoop=1;jettySize=auto;html=1;entryX=0;entryY=0.5;entryDx=0;entryDy=0;" edge="1" parent="29gexGZSZ9uPs4J3_abL-17" source="29gexGZSZ9uPs4J3_abL-13" target="29gexGZSZ9uPs4J3_abL-18">
          <mxGeometry relative="1" as="geometry">
            <mxPoint x="190" y="312.5" as="targetPoint" />
          </mxGeometry>
        </mxCell>
        <mxCell id="29gexGZSZ9uPs4J3_abL-16" value="Yes" style="edgeLabel;html=1;align=center;verticalAlign=middle;resizable=0;points=[];" vertex="1" connectable="0" parent="29gexGZSZ9uPs4J3_abL-15">
          <mxGeometry x="-0.4379" y="-2" relative="1" as="geometry">
            <mxPoint x="3" y="-17" as="offset" />
          </mxGeometry>
        </mxCell>
        <mxCell id="29gexGZSZ9uPs4J3_abL-20" value="" style="edgeStyle=orthogonalEdgeStyle;rounded=0;orthogonalLoop=1;jettySize=auto;html=1;" edge="1" parent="29gexGZSZ9uPs4J3_abL-17" source="29gexGZSZ9uPs4J3_abL-18" target="29gexGZSZ9uPs4J3_abL-19">
          <mxGeometry relative="1" as="geometry" />
        </mxCell>
        <mxCell id="29gexGZSZ9uPs4J3_abL-21" value="Yes" style="edgeLabel;html=1;align=center;verticalAlign=middle;resizable=0;points=[];" vertex="1" connectable="0" parent="29gexGZSZ9uPs4J3_abL-20">
          <mxGeometry x="-0.0989" y="3" relative="1" as="geometry">
            <mxPoint as="offset" />
          </mxGeometry>
        </mxCell>
        <mxCell id="29gexGZSZ9uPs4J3_abL-23" value="" style="edgeStyle=orthogonalEdgeStyle;rounded=0;orthogonalLoop=1;jettySize=auto;html=1;entryX=0.5;entryY=0;entryDx=0;entryDy=0;" edge="1" parent="29gexGZSZ9uPs4J3_abL-17" source="29gexGZSZ9uPs4J3_abL-18" target="29gexGZSZ9uPs4J3_abL-28">
          <mxGeometry relative="1" as="geometry">
            <mxPoint x="235" y="443" as="targetPoint" />
          </mxGeometry>
        </mxCell>
        <mxCell id="29gexGZSZ9uPs4J3_abL-24" value="No" style="edgeLabel;html=1;align=center;verticalAlign=middle;resizable=0;points=[];" vertex="1" connectable="0" parent="29gexGZSZ9uPs4J3_abL-23">
          <mxGeometry x="-0.1238" y="1" relative="1" as="geometry">
            <mxPoint as="offset" />
          </mxGeometry>
        </mxCell>
        <mxCell id="29gexGZSZ9uPs4J3_abL-18" value="老详情是生效状态" style="rhombus;whiteSpace=wrap;html=1;" vertex="1" parent="29gexGZSZ9uPs4J3_abL-17">
          <mxGeometry x="195" y="272.5" width="80" height="80" as="geometry" />
        </mxCell>
        <mxCell id="29gexGZSZ9uPs4J3_abL-19" value="设置为关闭状态" style="rounded=1;whiteSpace=wrap;html=1;" vertex="1" parent="29gexGZSZ9uPs4J3_abL-17">
          <mxGeometry x="340" y="296.25" width="95" height="32.5" as="geometry" />
        </mxCell>
        <mxCell id="29gexGZSZ9uPs4J3_abL-28" value="设置为失效、已过期" style="rounded=1;whiteSpace=wrap;html=1;" vertex="1" parent="29gexGZSZ9uPs4J3_abL-17">
          <mxGeometry x="195" y="400" width="80" height="40" as="geometry" />
        </mxCell>
        <mxCell id="29gexGZSZ9uPs4J3_abL-34" value="" style="edgeStyle=orthogonalEdgeStyle;rounded=0;orthogonalLoop=1;jettySize=auto;html=1;" edge="1" parent="29gexGZSZ9uPs4J3_abL-17" source="29gexGZSZ9uPs4J3_abL-30" target="29gexGZSZ9uPs4J3_abL-33">
          <mxGeometry relative="1" as="geometry" />
        </mxCell>
        <mxCell id="29gexGZSZ9uPs4J3_abL-30" value="设置为生效状态" style="rounded=1;whiteSpace=wrap;html=1;" vertex="1" parent="29gexGZSZ9uPs4J3_abL-17">
          <mxGeometry x="40" y="440" width="100" height="30" as="geometry" />
        </mxCell>
        <mxCell id="29gexGZSZ9uPs4J3_abL-36" value="" style="edgeStyle=orthogonalEdgeStyle;rounded=0;orthogonalLoop=1;jettySize=auto;html=1;" edge="1" parent="29gexGZSZ9uPs4J3_abL-17" source="29gexGZSZ9uPs4J3_abL-33" target="29gexGZSZ9uPs4J3_abL-35">
          <mxGeometry relative="1" as="geometry" />
        </mxCell>
        <mxCell id="29gexGZSZ9uPs4J3_abL-33" value="更新报警事件详情" style="rounded=1;whiteSpace=wrap;html=1;" vertex="1" parent="29gexGZSZ9uPs4J3_abL-17">
          <mxGeometry x="40" y="500" width="100" height="33.75" as="geometry" />
        </mxCell>
        <mxCell id="29gexGZSZ9uPs4J3_abL-35" value="更新报警事件" style="rounded=1;whiteSpace=wrap;html=1;" vertex="1" parent="29gexGZSZ9uPs4J3_abL-17">
          <mxGeometry x="40" y="570" width="100" height="29.38" as="geometry" />
        </mxCell>
        <mxCell id="29gexGZSZ9uPs4J3_abL-5" style="edgeStyle=orthogonalEdgeStyle;rounded=0;orthogonalLoop=1;jettySize=auto;html=1;exitX=0.5;exitY=1;exitDx=0;exitDy=0;" edge="1" parent="WIyWlLk6GJQsqaUBKTNV-1" source="29gexGZSZ9uPs4J3_abL-1" target="WIyWlLk6GJQsqaUBKTNV-10">
          <mxGeometry relative="1" as="geometry">
            <mxPoint x="180.0344827586207" y="477.5" as="sourcePoint" />
          </mxGeometry>
        </mxCell>
      </root>
    </mxGraphModel>
  </diagram>
</mxfile>
